<?xml version="1.0" standalone="no"?>
<!DOCTYPE svg PUBLIC "-//W3C//DTD SVG 20010904//EN"
 "http://www.w3.org/TR/2001/REC-SVG-20010904/DTD/svg10.dtd">
<svg version="1.0" xmlns="http://www.w3.org/2000/svg"
 width="1081.000000pt" height="883.000000pt" viewBox="0 0 1081.000000 883.000000"
 preserveAspectRatio="xMidYMid meet">

<g transform="translate(0.000000,883.000000) scale(0.100000,-0.100000)"
fill="#42373e" stroke="none">
<path d="M4575 8811 c-11 -5 -938 -649 -2060 -1431 -1122 -783 -2080 -1450
-2128 -1482 -137 -93 -208 -172 -276 -305 -121 -241 -133 -627 -29 -921 57
-161 127 -280 232 -391 73 -76 105 -91 256 -121 63 -13 116 -24 117 -25 2 -1
-9 -46 -24 -101 -24 -90 -26 -116 -27 -294 -1 -156 3 -212 18 -280 25 -114 69
-239 116 -327 l38 -71 -91 -64 c-51 -35 -112 -77 -135 -93 -70 -47 -166 -158
-210 -243 -86 -167 -118 -333 -109 -569 8 -207 44 -357 125 -518 69 -138 190
-288 261 -325 33 -17 5881 -1250 5928 -1250 11 0 33 5 49 10 32 11 3755 3189
3786 3231 31 41 34 100 9 153 -26 52 -68 82 -129 92 l-42 7 0 431 0 431 260
222 c143 123 267 234 276 248 27 41 29 105 6 152 -25 48 -61 73 -127 88 l-50
12 -2 509 -2 509 66 55 c37 30 75 69 85 85 24 41 24 120 -2 162 -38 64 -11 57
-647 173 l-123 22 0 438 0 437 68 57 c83 69 106 105 106 167 0 63 -29 109 -84
136 -33 16 -744 147 -2741 507 -1482 267 -2706 486 -2720 485 -13 0 -33 -4
-44 -8z m5095 -2125 l0 -505 -1667 -1418 c-918 -780 -1683 -1431 -1700 -1447
l-33 -28 0 541 c0 458 2 540 14 535 51 -20 61 -11 1737 1421 904 772 1645
1404 1647 1405 1 0 2 -227 2 -504z m630 -1368 l0 -503 -1686 -1435 c-927 -789
-1694 -1441 -1705 -1449 -19 -13 -19 -6 -19 523 l0 536 33 0 c17 1 44 6 59 13
15 7 765 643 1668 1415 903 771 1643 1402 1646 1402 2 0 4 -226 4 -502z
m-6985 -331 l2630 -552 3 -538 c1 -295 -1 -537 -4 -537 -4 0 -1179 246 -2613
546 -1433 300 -2630 550 -2658 556 l-53 11 0 539 0 539 33 -6 c17 -4 1215
-255 2662 -558z m6615 -1329 l-1 -423 -1680 -1430 c-924 -786 -1691 -1438
-1704 -1448 l-25 -19 0 536 0 536 29 0 c50 0 81 18 182 105 l97 84 61 -11 c45
-9 70 -8 98 0 28 9 432 348 1488 1252 798 682 1451 1240 1453 1240 1 0 2 -190
2 -422z m-6149 -173 c1378 -289 2525 -525 2548 -525 51 0 70 9 138 67 42 36
56 43 77 37 l26 -6 0 -539 c0 -296 -1 -539 -2 -539 -2 1 -1200 252 -2663 559
l-2660 558 -3 462 c-2 437 -1 462 15 457 10 -3 1146 -241 2524 -531z m-208
-1456 c1439 -302 2620 -549 2622 -549 3 0 5 -243 5 -540 l0 -540 -22 5 c-13 3
-1204 253 -2648 556 -1444 302 -2633 552 -2642 555 -17 5 -18 40 -18 544 l0
538 43 -10 c23 -5 1220 -256 2660 -559z"/>
</g>
</svg>
